HIERARCHY
ROOT Hips
{
  OFFSET 0.849866 78.6569 -0.536788
  CHANNELS 6 Xposition Yposition Zposition Zrotation Xrotation Yrotation
  JOINT Bip01_Pelvis
  {
    OFFSET 0 0 0
    CHANNELS 6 Xposition Yposition Zposition Zrotation Xrotation Yrotation
    JOINT BN_Tail_01
    {
      OFFSET -5.52397 -0.332285 0
      CHANNELS 6 Xposition Yposition Zposition Zrotation Xrotation Yrotation
      JOINT BN_Tail_02
      {
        OFFSET 6.48885 -2.032e-005 0
        CHANNELS 6 Xposition Yposition Zposition Zrotation Xrotation Yrotation
        JOINT BN_Tail_03
        {
          OFFSET 7.08759 1.016e-005 -0.00261112
          CHANNELS 6 Xposition Yposition Zposition Zrotation Xrotation Yrotation
          End Site
          {
            OFFSET 0 0 0
          }
        }
      }
    }
    JOINT Bip01_Spine
    {
      OFFSET 4.02227 0.398968 0
      CHANNELS 6 Xposition Yposition Zposition Zrotation Xrotation Yrotation
      JOINT BN_UpperArm_R_01
      {
        OFFSET 4.84413 -3.22857 -3.65581
        CHANNELS 6 Xposition Yposition Zposition Zrotation Xrotation Yrotation
        JOINT BN_Forearm_R_01
        {
          OFFSET 8.51614 0 0
          CHANNELS 6 Xposition Yposition Zposition Zrotation Xrotation Yrotation
          JOINT BN_hand_R_01
          {
            OFFSET 10.1924 0 0
            CHANNELS 6 Xposition Yposition Zposition Zrotation Xrotation Yrotation
            JOINT BN_Finger_R_02
            {
              OFFSET 14.5949 -1.43855 0.585079
              CHANNELS 6 Xposition Yposition Zposition Zrotation Xrotation Yrotation
              End Site
              {
                OFFSET 0 0 0
              }
            }
            JOINT BN_Finger_R_01
            {
              OFFSET 14.4623 0 0
              CHANNELS 6 Xposition Yposition Zposition Zrotation Xrotation Yrotation
              End Site
              {
                OFFSET 0 0 0
              }
            }
          }
        }
      }
      JOINT BN_UpperArm_L_01
      {
        OFFSET 4.84412 -3.22858 3.65557
        CHANNELS 6 Xposition Yposition Zposition Zrotation Xrotation Yrotation
        JOINT BN_Forearm_L_01
        {
          OFFSET 8.51611 0 0
          CHANNELS 6 Xposition Yposition Zposition Zrotation Xrotation Yrotation
          JOINT BN_hand_L_01
          {
            OFFSET 10.1924 0 0
            CHANNELS 6 Xposition Yposition Zposition Zrotation Xrotation Yrotation
            JOINT BN_Finger_L_01
            {
              OFFSET 14.4623 0 0
              CHANNELS 6 Xposition Yposition Zposition Zrotation Xrotation Yrotation
              End Site
              {
                OFFSET 0 0 0
              }
            }
            JOINT BN_Finger_L_02
            {
              OFFSET 14.5949 1.43855 0.585071
              CHANNELS 6 Xposition Yposition Zposition Zrotation Xrotation Yrotation
              End Site
              {
                OFFSET 0 0 0
              }
            }
          }
        }
      }
      JOINT Bip01_R_Thigh
      {
        OFFSET -4.03411 -0.254132 -3.45377
        CHANNELS 6 Xposition Yposition Zposition Zrotation Xrotation Yrotation
        JOINT Bip01_R_Calf
        {
          OFFSET 3.92618 0 0
          CHANNELS 6 Xposition Yposition Zposition Zrotation Xrotation Yrotation
          JOINT Bip01_R_HorseLink
          {
            OFFSET 6.12319 0 0
            CHANNELS 6 Xposition Yposition Zposition Zrotation Xrotation Yrotation
            JOINT Bip01_R_Foot
            {
              OFFSET 9.94776 0 0
              CHANNELS 6 Xposition Yposition Zposition Zrotation Xrotation Yrotation
              JOINT Bip01_R_Toe3
              {
                OFFSET 0.881252 -0.110953 0.0158496
                CHANNELS 6 Xposition Yposition Zposition Zrotation Xrotation Yrotation
                JOINT Bip01_R_Toe31
                {
                  OFFSET 2.32137 0 0
                  CHANNELS 6 Xposition Yposition Zposition Zrotation Xrotation Yrotation
                  JOINT Bip01_R_Toe32
                  {
                    OFFSET 1.63293 0 0
                    CHANNELS 6 Xposition Yposition Zposition Zrotation Xrotation Yrotation
                    JOINT Bip01_R_Toe3Nub
                    {
                      OFFSET 1.72131 0 0
                      CHANNELS 6 Xposition Yposition Zposition Zrotation Xrotation Yrotation
                      End Site
                      {
                        OFFSET 0 0 0
                      }
                    }
                  }
                }
              }
              JOINT Bip01_R_Toe2
              {
                OFFSET 0.994751 0.967285 -1.09428
                CHANNELS 6 Xposition Yposition Zposition Zrotation Xrotation Yrotation
                JOINT Bip01_R_Toe21
                {
                  OFFSET 2.20201 0 0
                  CHANNELS 6 Xposition Yposition Zposition Zrotation Xrotation Yrotation
                  JOINT Bip01_R_Toe22
                  {
                    OFFSET 1.84925 0 0
                    CHANNELS 6 Xposition Yposition Zposition Zrotation Xrotation Yrotation
                    JOINT Bip01_R_Toe2Nub
                    {
                      OFFSET 1.70976 0 0
                      CHANNELS 6 Xposition Yposition Zposition Zrotation Xrotation Yrotation
                      End Site
                      {
                        OFFSET 0 0 0
                      }
                    }
                  }
                }
              }
              JOINT Bip01_R_Toe1
              {
                OFFSET 1.3748 1.34027 -0.0712419
                CHANNELS 6 Xposition Yposition Zposition Zrotation Xrotation Yrotation
                JOINT Bip01_R_Toe11
                {
                  OFFSET 2.26122 0 0
                  CHANNELS 6 Xposition Yposition Zposition Zrotation Xrotation Yrotation
                  JOINT Bip01_R_Toe12
                  {
                    OFFSET 2.22215 0 0
                    CHANNELS 6 Xposition Yposition Zposition Zrotation Xrotation Yrotation
                    JOINT Bip01_R_Toe1Nub
                    {
                      OFFSET 1.61867 0 0
                      CHANNELS 6 Xposition Yposition Zposition Zrotation Xrotation Yrotation
                      End Site
                      {
                        OFFSET 0 0 0
                      }
                    }
                  }
                }
              }
              JOINT Bip01_R_Toe0
              {
                OFFSET 1.40695 0.687986 0.883783
                CHANNELS 6 Xposition Yposition Zposition Zrotation Xrotation Yrotation
                JOINT Bip01_R_Toe01
                {
                  OFFSET 2.26828 0 0
                  CHANNELS 6 Xposition Yposition Zposition Zrotation Xrotation Yrotation
                  JOINT Bip01_R_Toe02
                  {
                    OFFSET 2.09769 0 0
                    CHANNELS 6 Xposition Yposition Zposition Zrotation Xrotation Yrotation
                    JOINT Bip01_R_Toe0Nub
                    {
                      OFFSET 1.53753 0 0
                      CHANNELS 6 Xposition Yposition Zposition Zrotation Xrotation Yrotation
                      End Site
                      {
                        OFFSET 0 0 0
                      }
                    }
                  }
                }
              }
            }
          }
        }
      }
      JOINT Bip01_L_Thigh
      {
        OFFSET -4.03411 -0.254147 3.45377
        CHANNELS 6 Xposition Yposition Zposition Zrotation Xrotation Yrotation
        JOINT Bip01_L_Calf
        {
          OFFSET 3.92616 0 0
          CHANNELS 6 Xposition Yposition Zposition Zrotation Xrotation Yrotation
          JOINT Bip01_L_HorseLink
          {
            OFFSET 6.1232 0 0
            CHANNELS 6 Xposition Yposition Zposition Zrotation Xrotation Yrotation
            JOINT Bip01_L_Foot
            {
              OFFSET 9.94775 0 0
              CHANNELS 6 Xposition Yposition Zposition Zrotation Xrotation Yrotation
              JOINT Bip01_L_Toe3
              {
                OFFSET 0.881246 -0.110986 -0.0157582
                CHANNELS 6 Xposition Yposition Zposition Zrotation Xrotation Yrotation
                JOINT Bip01_L_Toe31
                {
                  OFFSET 2.32136 0 0
                  CHANNELS 6 Xposition Yposition Zposition Zrotation Xrotation Yrotation
                  JOINT Bip01_L_Toe32
                  {
                    OFFSET 1.63293 0 0
                    CHANNELS 6 Xposition Yposition Zposition Zrotation Xrotation Yrotation
                    JOINT Bip01_L_Toe3Nub
                    {
                      OFFSET 1.7213 0 0
                      CHANNELS 6 Xposition Yposition Zposition Zrotation Xrotation Yrotation
                      End Site
                      {
                        OFFSET 0 0 0
                      }
                    }
                  }
                }
              }
              JOINT Bip01_L_Toe2
              {
                OFFSET 0.994649 0.967162 1.09447
                CHANNELS 6 Xposition Yposition Zposition Zrotation Xrotation Yrotation
                JOINT Bip01_L_Toe21
                {
                  OFFSET 2.202 0 0
                  CHANNELS 6 Xposition Yposition Zposition Zrotation Xrotation Yrotation
                  JOINT Bip01_L_Toe22
                  {
                    OFFSET 1.84926 0 0
                    CHANNELS 6 Xposition Yposition Zposition Zrotation Xrotation Yrotation
                    JOINT Bip01_L_Toe2Nub
                    {
                      OFFSET 1.70976 0 0
                      CHANNELS 6 Xposition Yposition Zposition Zrotation Xrotation Yrotation
                      End Site
                      {
                        OFFSET 0 0 0
                      }
                    }
                  }
                }
              }
              JOINT Bip01_L_Toe1
              {
                OFFSET 1.37483 1.34021 0.0715086
                CHANNELS 6 Xposition Yposition Zposition Zrotation Xrotation Yrotation
                JOINT Bip01_L_Toe11
                {
                  OFFSET 2.26124 0 0
                  CHANNELS 6 Xposition Yposition Zposition Zrotation Xrotation Yrotation
                  JOINT Bip01_L_Toe12
                  {
                    OFFSET 2.22214 0 0
                    CHANNELS 6 Xposition Yposition Zposition Zrotation Xrotation Yrotation
                    JOINT Bip01_L_Toe1Nub
                    {
                      OFFSET 1.61867 0 0
                      CHANNELS 6 Xposition Yposition Zposition Zrotation Xrotation Yrotation
                      End Site
                      {
                        OFFSET 0 0 0
                      }
                    }
                  }
                }
              }
              JOINT Bip01_L_Toe0
              {
                OFFSET 1.40707 0.688009 -0.883564
                CHANNELS 6 Xposition Yposition Zposition Zrotation Xrotation Yrotation
                JOINT Bip01_L_Toe01
                {
                  OFFSET 2.26828 0 0
                  CHANNELS 6 Xposition Yposition Zposition Zrotation Xrotation Yrotation
                  JOINT Bip01_L_Toe02
                  {
                    OFFSET 2.0977 0 0
                    CHANNELS 6 Xposition Yposition Zposition Zrotation Xrotation Yrotation
                    JOINT Bip01_L_Toe0Nub
                    {
                      OFFSET 1.53752 0 0
                      CHANNELS 6 Xposition Yposition Zposition Zrotation Xrotation Yrotation
                      End Site
                      {
                        OFFSET 0 0 0
                      }
                    }
                  }
                }
              }
            }
          }
        }
      }
      JOINT Bip01_Spine1
      {
        OFFSET 4.90674 -0.00437896 0
        CHANNELS 6 Xposition Yposition Zposition Zrotation Xrotation Yrotation
        JOINT Bip01_Neck
        {
          OFFSET 5.56447 -1.28357 0
          CHANNELS 6 Xposition Yposition Zposition Zrotation Xrotation Yrotation
          JOINT Bip01_Neck1
          {
            OFFSET 2.79308 -0.00219964 0
            CHANNELS 6 Xposition Yposition Zposition Zrotation Xrotation Yrotation
            JOINT Bip01_Head
            {
              OFFSET 2.79272 0 0
              CHANNELS 6 Xposition Yposition Zposition Zrotation Xrotation Yrotation
              JOINT BN_Mouth_01
              {
                OFFSET 4.19089 0.0665938 0
                CHANNELS 6 Xposition Yposition Zposition Zrotation Xrotation Yrotation
                End Site
                {
                  OFFSET 0 0 0
                }
              }
              JOINT Bip01_HeadNub
              {
                OFFSET 6.95118 0 0
                CHANNELS 6 Xposition Yposition Zposition Zrotation Xrotation Yrotation
                End Site
                {
                  OFFSET 0 0 0
                }
              }
            }
          }
        }
      }
    }
  }
}
MOTION
Frames:	3
Frame Time:	0.0333333
1.07567e-005 69.3193 1.19272e-006 117.625 -90 -180 0 0 0 -89.9989 1.68048 -89.9988 -5.52396 -0.332281 -1.19045e-016 -13.4582 0.00430298 179.962 6.48885 2.13163e-014 5.96046e-008 15.8436 7.25473e-008 4.25018e-008 7.0876 9.53673e-007 0.000513077 10.8574 0.00512959 0.0287228 4.04024 0.0822624 5.48108e-015 -7.53132 9.77251e-012 5.13374e-011 4.84384 -3.22896 -3.65579 -70.3651 -6.35212 119.155 8.51612 2.38419e-007 2.84217e-014 45.7446 -15.8725 8.48341 10.1924 -1.06582e-014 -2.84217e-014 -34.5694 -4.77668 -9.98042 14.5949 -1.43856 0.585078 -26.352 -0.36286 -33.4474 14.4623 -1.90735e-006 0 -10.6469 -2.71676 -34.7194 4.84386 -3.22892 3.65558 109.628 -6.35347 -60.8374 8.51612 0 1.42108e-014 -45.7446 15.8725 8.48339 10.1924 3.55272e-015 -1.42108e-014 34.5694 4.77666 -9.98043 14.4623 -1.77636e-014 4.76837e-007 26.352 0.362895 -33.4474 14.5949 1.43852 0.585102 10.6469 2.71681 -34.7195 -3.99482 -0.610763 -3.45393 -36.8175 -7.0085 -167.134 3.92617 -3.55272e-015 -1.77636e-015 -4.22903 9.02494e-006 1.09399e-005 6.12321 0 -1.77636e-015 98.0877 -1.75257e-006 -1.10563e-005 9.94776 -7.10546e-015 0 -94.3681 -0.313566 -4.3734 0.881236 -0.110961 0.0158242 -169.409 -3.70062 -177.408 2.32137 -3.05314e-015 8.9407e-008 -5.26506 -1.12471e-006 -6.61462e-007 1.63294 4.44094e-015 4.47035e-008 -6.06944e-006 9.97746e-006 -3.41653e-007 1.72131 2.66457e-015 -7.45058e-009 -1.62701e-006 1.00594e-005 2.45256e-006 0.994712 0.967274 -1.09432 23.3043 -26.3421 8.54328 2.20201 2.38421e-007 -2.66453e-015 -43.5095 1.40156e-007 3.2746e-006 1.84925 1.06583e-014 2.38419e-007 -1.31853e-005 -1.73514e-005 0.00393529 1.70977 2.38422e-007 2.38419e-007 8.39705e-007 -1.53219e-007 -3.67725e-008 1.37479 1.34026 -0.0712928 12.1042 2.63504 -0.499279 2.26124 1.1921e-007 -4.91738e-007 -37.4247 -0.00502622 0.00658298 2.22213 2.13165e-014 1.41561e-007 0.00252904 -8.49802e-007 0.00953812 1.61867 -4.76843e-007 2.68221e-007 4.20163e-007 1.02733e-005 4.71786e-008 1.40696 0.687988 0.883735 7.86245 31.643 -3.65561 2.26828 2.66456e-015 2.22044e-015 -30.5878 0.00859429 -0.0145238 2.0977 -4.76843e-007 -1.43051e-006 -0.00127389 1.03513e-005 0.00890259 1.53754 -4.76844e-007 2.44249e-015 -9.0092e-006 1.04803e-005 -1.86634e-008 -3.99529 -0.61055 3.45359 -93.5406 14.7994 -178.502 3.92617 4.76838e-007 -3.55271e-015 -67.3807 6.14328e-007 -4.18199e-007 6.1232 0 -1.77636e-015 90.0407 5.6567e-007 -9.11179e-006 9.94775 -2.3842e-007 2.38419e-007 -45.3786 -2.79024 6.41406 0.881237 -0.110963 -0.0158114 171.099 4.41938 178.775 2.32137 3.55275e-015 2.38419e-007 28.9486 0.0278195 0.0502694 1.63293 -2.98026e-008 -2.38419e-007 1.12322e-014 1.21708e-006 3.5089e-007 1.72131 -1.19211e-007 -1.33227e-015 -179.96 -0.000107521 -7.40122e-005 0.994703 0.967278 1.09432 -6.8105 27.0518 5.04179 2.20201 -1.1921e-007 0 -47.0082 0.0350837 -0.0327059 1.84925 -2.38422e-007 0 -9.54866e-006 3.20478e-006 1.23238e-006 1.70977 3.55276e-015 -1.77636e-015 -179.96 9.88785e-005 -4.99161e-006 1.3748 1.34026 0.0713029 0.42319 -2.67911 -0.00408854 2.26124 -3.55275e-015 1.33227e-015 -42.2298 2.3398e-006 -1.35438e-008 2.22214 1.19211e-007 1.19209e-007 -9.67217e-006 9.57672e-006 9.88022e-006 1.61867 -2.38422e-007 2.38419e-007 -179.96 9.89035e-005 -4.87397e-005 1.40698 0.687975 -0.883719 3.30507 -31.7624 1.51888 2.26829 -3.55275e-015 0 -41.6455 6.00322e-007 -2.65498e-006 2.0977 5.32914e-015 -5.36441e-007 2.02264e-013 1.04656e-005 2.63637e-006 1.53754 4.76844e-007 -5.96046e-008 179.96 9.92914e-005 -1.27199e-005 4.9056 -0.00427723 2.91049e-011 -11.5532 5.85598e-008 -3.12139e-008 5.56289 -1.28305 1.22592e-010 5.92684 6.22678e-008 1.27664e-007 2.79232 -0.00218678 4.47036e-008 10.3693 -1.86127e-008 -1.44838e-007 2.79273 1.42109e-014 2.98023e-008 -4.41451 -9.87161e-008 1.78228e-007 4.19088 0.0665932 -1.07456e-012 -164.108 0.0171051 -180 6.95116 -7.10543e-015 1.19209e-007 -1.17075e-006 1.16107e-008 3.06464e-008 
1.12693e-005 73.1062 1.26586e-006 124.877 -90 -172.308 0 0 0 -89.9987 -0.917358 -89.9988 -5.52396 -0.332281 -9.75782e-017 -17.0416 0.00546264 179.963 6.48885 7.10543e-015 5.96046e-008 19.7337 7.45397e-008 3.73894e-008 7.0876 9.53673e-007 0.000513077 11.8722 0.00422728 0.0219195 4.03989 -0.101456 1.88963e-014 -8.39322 1.19858e-011 5.11588e-011 4.84382 -3.22895 -3.65581 -78.1093 -13.8598 124.116 8.51612 2.38419e-007 0 44.4674 5.2891 20.6275 10.1924 -3.55272e-014 -2.13163e-014 -39.6533 -7.48622 0.424001 14.5949 -1.43856 0.585078 -26.9115 -0.389012 -32.4365 14.4623 -1.90735e-006 4.26325e-014 -10.1273 -2.63868 -33.6926 4.84384 -3.22897 3.65557 101.883 -13.8642 -55.874 8.51612 0 1.42108e-014 -44.4674 -5.28912 20.6275 10.1924 2.13163e-014 0 39.6534 7.48622 0.423918 14.4623 1.77636e-014 4.76837e-007 26.9114 0.38906 -32.4364 14.5949 1.43852 0.585102 10.1272 2.63871 -33.6925 -4.01194 -0.488981 -3.45393 -43.7051 -8.00253 -168.166 3.92617 0 -5.32907e-015 -6.43042 9.56986e-006 1.36406e-006 6.12321 3.55272e-015 3.55271e-015 88.7027 -1.77916e-007 -1.11893e-005 9.94776 0 -1.77636e-015 -88.2167 -2.42906 -4.25761 0.881236 -0.110961 0.0158242 -172.484 -3.85009 -177.605 2.32137 -1.11023e-014 8.9407e-008 -9.1956 0.00163034 -0.0100774 1.63294 5.32913e-015 4.47035e-008 -6.06944e-006 9.97746e-006 -3.41653e-007 1.72131 -5.32913e-015 -7.45058e-009 -1.62701e-006 1.00594e-005 2.45256e-006 0.994712 0.967274 -1.09432 22.403 -26.438 8.17145 2.20201 2.38421e-007 0 -41.7173 -0.000254684 0.000289849 1.84925 1.06583e-014 2.38419e-007 -1.31853e-005 -1.73514e-005 0.00367071 1.70977 2.38422e-007 2.38419e-007 8.39705e-007 -1.53219e-007 -3.67725e-008 1.37479 1.34026 -0.0712928 12.2372 2.63263 -0.510989 2.26124 1.1921e-007 -4.91738e-007 -36.6253 -0.00783906 0.0105608 2.22213 7.10552e-015 1.41561e-007 0.00223162 -7.74401e-007 0.0127483 1.61867 -4.76843e-007 2.68221e-007 4.20163e-007 1.02733e-005 4.71786e-008 1.40696 0.687988 0.883735 11.266 31.4001 -5.47505 2.26828 -1.99842e-015 3.55271e-015 -31.5797 -0.017443 0.0283906 2.0977 -4.76843e-007 -1.43051e-006 -0.00288083 9.98082e-006 0.011309 1.53754 -4.76844e-007 6.66133e-016 -9.0092e-006 1.04803e-005 9.99918e-006 -4.01222 -0.488696 3.45359 -101.078 14.253 -176.264 3.92617 4.76838e-007 -8.88178e-016 -70.9413 3.06924e-007 -3.89474e-007 6.1232 0 -5.32907e-015 84.2597 1.46447e-006 -9.05919e-006 9.94775 -2.3842e-007 2.38419e-007 -40.1561 -3.21459 5.99704 0.881237 -0.110963 -0.0158114 169.985 4.43269 178.857 2.32137 3.55274e-015 2.38419e-007 30.9003 0.00661373 0.0110274 1.63293 -2.98027e-008 -2.38419e-007 1.20273e-014 1.21708e-006 3.5089e-007 1.72131 -1.19211e-007 -3.10862e-015 -179.96 -0.000107521 -7.40123e-005 0.994703 0.967277 1.09432 -6.1686 27.0926 4.7215 2.20201 -1.1921e-007 -3.55271e-015 -48.6077 -0.00580331 0.00511549 1.84925 -2.38422e-007 0 -9.54866e-006 3.20478e-006 1.23238e-006 1.70977 -1.06583e-014 -3.55271e-015 -179.96 9.88786e-005 -4.99159e-006 1.3748 1.34026 0.0713029 1.90494 -2.67835 0.0657944 2.26124 3.55274e-015 -4.44089e-016 -43.8551 0.00964915 -0.0100403 2.22214 1.19211e-007 1.19209e-007 -9.67217e-006 9.57672e-006 9.88022e-006 1.61867 -2.38422e-007 2.38419e-007 -179.96 9.89037e-005 -4.87397e-005 1.40698 0.687975 -0.883719 5.13842 -31.7027 2.51869 2.26829 7.10549e-015 -1.77635e-015 -42.9192 0.0231566 -0.0249045 2.0977 1.77638e-015 -5.36441e-007 2.18167e-013 1.04656e-005 2.63637e-006 1.53754 4.76844e-007 -5.96046e-008 179.96 9.92909e-005 -1.27198e-005 4.9056 -0.00427723 2.91051e-011 -8.82639 -2.02914e-007 -2.11296e-008 5.56289 -1.28305 1.22481e-010 3.80323 -4.26287e-008 8.28042e-008 2.79232 -0.00218678 4.47036e-008 6.2512 2.55647e-010 -4.07592e-008 2.79273 -2.84217e-014 2.98023e-008 -6.41156 -5.60215e-008 1.77163e-007 4.19088 0.0665932 -1.07333e-012 -163.245 0.0192719 -180 6.95116 0 1.19209e-007 -1.17075e-006 1.16107e-008 3.06464e-008 
1.23308e-005 76.9437 1.33999e-006 116.753 -90 -180 0 0 0 -89.9988 -3.17046 -89.9988 -5.52396 -0.332281 -5.0307e-017 -20.1106 0.00390625 179.977 6.48885 7.10543e-015 5.96046e-008 22.9297 7.78677e-008 3.28599e-008 7.0876 9.53673e-007 0.000513077 12.8475 0.00470814 0.0223196 4.03297 -0.259772 3.65372e-014 -8.6988 1.16536e-011 5.10984e-011 4.84407 -3.22859 -3.65581 -86.1294 -20.9778 123.467 8.51611 2.38419e-007 0 34.5685 22.8178 34.0143 10.1924 -4.26327e-014 0 -43.0494 -10.9483 11.1263 14.5949 -1.43856 0.585079 -27.8944 -0.442245 -30.0962 14.4623 -1.90735e-006 7.10542e-015 -9.80924 -2.61843 -31.3549 4.84409 -3.22861 3.65557 93.8622 -20.9859 -56.5204 8.51612 7.10544e-015 7.10542e-015 -34.5685 -22.8178 34.0143 10.1924 0 1.77636e-015 43.0536 10.9493 11.1181 14.4623 -7.10545e-015 4.76837e-007 27.8874 0.444982 -30.0927 14.5949 1.43852 0.585101 9.8023 2.62096 -31.3475 -4.02605 -0.353359 -3.45393 -50.7072 -8.82124 -169.204 3.92617 0 -1.77636e-015 -8.83208 9.19551e-006 2.75946e-006 6.12321 -3.55272e-015 -3.55271e-015 80.7911 1.28606e-006 -1.10559e-005 9.94776 1.42109e-014 1.77636e-015 -82.9076 -4.28537 -4.1263 0.881236 -0.110961 0.0158242 -174.946 -3.89663 -177.775 2.32137 0 8.9407e-008 -12.2564 -0.0029535 0.0135913 1.63294 -5.32913e-015 4.47035e-008 -6.06944e-006 9.97746e-006 -3.41653e-007 1.72131 1.77638e-015 -7.45058e-009 -1.62701e-006 1.00594e-005 2.45256e-006 0.994712 0.967273 -1.09432 21.6818 -26.5196 7.85396 2.20201 2.38421e-007 -3.55271e-015 -40.2791 -0.0258244 0.0304782 1.84925 -7.10553e-015 2.38419e-007 -1.31853e-005 -1.73514e-005 0.00341029 1.70977 2.38422e-007 2.38419e-007 8.39705e-007 -1.53219e-007 -3.67725e-008 1.37479 1.34026 -0.0712928 12.3279 2.62994 -0.518054 2.26124 1.1921e-007 -4.91738e-007 -36.0713 6.18673e-006 7.18972e-006 2.22213 7.10552e-015 1.41561e-007 0.00190059 -7.43442e-007 0.0158961 1.61867 -4.76843e-007 2.68221e-007 4.20163e-007 1.02733e-005 4.71786e-008 1.40696 0.687988 0.883735 13.9889 31.1268 -6.9484 2.26828 -1.11023e-015 3.10862e-015 -32.4082 7.19796e-006 3.70933e-006 2.0977 -4.76843e-007 -1.43051e-006 -0.00445408 9.48625e-006 0.0136716 1.53754 -4.76844e-007 -1.9984e-015 -9.0092e-006 1.04803e-005 9.99921e-006 -4.02609 -0.353301 3.45359 -108.075 13.5756 -174.404 3.92617 4.76838e-007 -1.77636e-015 -74.0803 -5.55141e-008 -4.06625e-007 6.1232 3.55272e-015 2.66453e-015 79.2705 2.41984e-006 -8.92105e-006 9.94775 -2.3842e-007 2.38419e-007 -35.7249 -3.51158 5.67597 0.881237 -0.110963 -0.0158114 169.165 4.40137 178.916 2.32137 0 2.38419e-007 32.4264 0.0231255 0.0363803 1.63293 -2.98026e-008 -2.38419e-007 4.47349e-015 1.21708e-006 3.5089e-007 1.72131 -1.19211e-007 1.33227e-015 -179.96 -0.000107521 -7.40124e-005 0.994703 0.967277 1.09432 -5.69462 27.1193 4.48308 2.20201 -1.1921e-007 -3.55271e-015 -49.8188 0.0234531 -0.0198055 1.84925 -2.38422e-007 0 -9.54866e-006 3.20478e-006 1.23238e-006 1.70977 0 -3.55271e-015 -179.96 9.88786e-005 -4.99158e-006 1.3748 1.34026 0.0713029 3.00099 -2.67688 0.119116 2.26124 -7.10549e-015 -2.66454e-015 -45.1309 0.0322536 -0.0321042 2.22214 1.19211e-007 1.19209e-007 -9.67217e-006 9.57672e-006 9.88022e-006 1.61867 -2.38422e-007 2.38419e-007 -179.96 9.89039e-005 -4.87397e-005 1.40698 0.687975 -0.883719 6.49278 -31.645 3.25793 2.26829 3.55275e-015 -3.55271e-015 -43.9405 0.0269714 -0.0279897 2.0977 -5.32914e-015 -5.36441e-007 2.14987e-013 1.04656e-005 2.63637e-006 1.53754 4.76844e-007 -5.96046e-008 179.96 9.92906e-005 -1.27198e-005 4.9056 -0.00427723 2.91051e-011 -5.77135 -1.0004e-007 -2.73081e-008 5.56289 -1.28305 1.22264e-010 1.79412 5.57015e-008 1.45076e-007 2.79232 -0.00218678 4.47036e-008 2.22434 -5.06821e-009 -1.32258e-007 2.79273 2.84217e-014 2.98023e-008 -8.32357 -1.28251e-007 1.23093e-007 4.19088 0.0665932 -1.06179e-012 -162.398 0.0213928 180 6.95116 0 1.19209e-007 -1.17075e-006 1.16107e-008 3.06464e-008 
